<svg xmlns="http://www.w3.org/2000/svg" fill="none" viewBox="0 0 48 48"><path d="M9.067 21.052c0-8.659 6.902-15.719 15.465-15.719s15.465 7.06 15.465 15.719c0 4.18-1.191 8.668-3.297 12.546-2.104 3.873-5.177 7.238-9.021 9.035a7.42 7.42 0 0 1-6.294 0c-3.845-1.797-6.918-5.162-9.021-9.035-2.106-3.878-3.297-8.366-3.297-12.546M24.532 7.985c-7.055 0-12.814 5.828-12.814 13.067 0 3.706 1.065 7.763 2.976 11.28 1.913 3.524 4.617 6.405 7.813 7.9 1.286.6 2.763.6 4.05 0 3.196-1.495 5.9-4.376 7.813-7.9 1.91-3.517 2.976-7.574 2.976-11.28 0-7.24-5.76-13.067-12.814-13.067m0 8.837a3.977 3.977 0 1 0 0 7.953 3.977 3.977 0 0 0 0-7.953m-6.628 3.977a6.628 6.628 0 1 1 13.256 0 6.628 6.628 0 0 1-13.256 0" clip-rule="evenodd"></path></svg>