<svg xmlns="http://www.w3.org/2000/svg" fill="none" viewBox="0 0 48 48"><path d="M10.142 6.976c2.39-2.516 6.342-2.044 8.317.75l2.457 3.475c1.58 2.234 1.446 5.34-.439 7.325L20 19.03l-.004.011c-.025.071-.09.297-.027.725.13.887.816 2.691 3.598 5.62 2.79 2.938 4.483 3.63 5.268 3.758.338.055.515.008.572-.012l.796-.839c1.703-1.792 4.357-2.145 6.498-.913l3.723 2.142c3.182 1.832 3.922 6.312 1.38 8.99l-2.769 2.914c-.864.91-2.042 1.686-3.498 1.83-3.554.35-11.787-.107-20.418-9.194-8.054-8.48-9.584-15.855-9.778-19.458l1.298-.07-1.298.07c-.095-1.78.698-3.308 1.742-4.407zm5.93 2.437c-.998-1.412-2.792-1.497-3.81-.424l-3.06 3.22c-.645.68-.984 1.46-.942 2.237.158 2.942 1.425 9.65 8.978 17.602 7.92 8.338 15.216 8.574 18.012 8.298.553-.055 1.122-.362 1.666-.934l2.768-2.914c1.194-1.258.881-3.523-.718-4.443l-3.723-2.143c-1-.575-2.17-.397-2.92.393l-.888.935-1.028-.976c1.028.976 1.026.977 1.025.979l-.003.003-.006.006-.012.012-.028.028a2 2 0 0 1-.264.217c-.157.11-.364.232-.627.336-.538.212-1.248.326-2.126.184-1.71-.278-3.951-1.506-6.919-4.63-2.976-3.134-4.115-5.472-4.37-7.21-.13-.885-.026-1.594.165-2.129.093-.263.204-.473.306-.632a2.4 2.4 0 0 1 .202-.272l.026-.03.012-.012.005-.006.003-.003c.001-.002.003-.003 1.039.981l-1.036-.984.559-.588c.868-.914.994-2.462.171-3.626z" clip-rule="evenodd"></path></svg>